<?xml version="1.0" standalone="no"?>
<!DOCTYPE svg PUBLIC "-//W3C//DTD SVG 20010904//EN"
 "http://www.w3.org/TR/2001/REC-SVG-20010904/DTD/svg10.dtd">
<svg version="1.0" xmlns="http://www.w3.org/2000/svg"
 width="250.000000pt" height="250.000000pt" viewBox="0 0 250.000000 250.000000"
 preserveAspectRatio="xMidYMid meet">

<g transform="translate(0.000000,250.000000) scale(0.100000,-0.100000)"
fill="#000000" stroke="none">
<path d="M130 2454 c-42 -15 -64 -32 -77 -61 -11 -26 -13 -233 -13 -1131 0
-605 3 -1113 6 -1131 4 -17 18 -42 32 -56 l25 -25 1142 0 1143 0 31 29 31 29
0 1141 0 1141 -29 32 -29 33 -1124 2 c-618 1 -1130 -1 -1138 -3z m1732 -475
c12 -7 55 -15 96 -20 87 -10 117 -27 140 -77 10 -21 26 -51 38 -67 12 -17 29
-53 38 -80 12 -37 28 -61 62 -89 71 -59 73 -73 28 -141 -22 -32 -47 -73 -57
-92 -21 -41 -56 -57 -94 -42 -42 16 -48 0 -48 -136 0 -144 -11 -170 -49 -122
l-23 29 -11 -45 c-15 -60 -34 -65 -71 -19 -24 30 -32 35 -42 24 -7 -6 -21 -12
-30 -12 -13 0 -20 -14 -28 -50 -16 -72 -16 -70 40 -238 44 -133 56 -157 90
-190 21 -20 40 -48 41 -62 l3 -25 -101 -3 -102 -3 -16 41 c-9 22 -16 47 -16
56 0 32 -110 230 -148 268 -39 37 -41 38 -127 42 -106 5 -232 33 -382 86
l-113 39 -47 -24 c-27 -13 -58 -39 -71 -58 -50 -75 -100 -132 -159 -180 l-63
-51 0 -58 c0 -39 5 -62 14 -67 18 -11 36 -47 36 -72 0 -19 -6 -21 -80 -21 -78
0 -80 1 -95 30 -11 21 -15 61 -15 153 0 116 2 127 25 161 68 100 85 182 70
322 l-8 69 -21 -81 c-12 -45 -30 -93 -39 -107 -42 -65 -129 -102 -206 -88 -58
12 -93 39 -111 90 -13 37 -13 45 0 68 26 45 65 66 127 70 46 3 65 0 91 -17 45
-28 39 -51 -18 -67 -50 -15 -92 -9 -115 14 -20 20 -43 10 -51 -22 -19 -77 86
-130 180 -91 52 22 84 73 111 180 35 137 60 190 116 240 69 62 110 71 272 60
73 -5 186 -9 252 -9 148 1 198 19 241 87 64 100 78 118 115 144 l40 28 -25 15
c-41 24 -39 39 4 51 26 7 49 23 70 50 42 53 92 68 161 51 56 -15 65 -12 50 17
-24 45 -10 63 31 41z m-785 -1053 c-6 -62 -43 -156 -67 -171 -5 -3 -10 -12
-10 -20 0 -27 53 -102 85 -119 30 -16 65 -62 65 -85 0 -12 -155 -16 -184 -5
-8 3 -43 51 -77 105 -56 92 -61 103 -54 137 4 20 9 58 10 85 2 47 9 66 22 54
13 -13 15 -114 3 -136 -10 -20 -5 -33 42 -111 29 -49 62 -94 74 -100 11 -6 42
-10 70 -8 l49 3 -37 23 c-36 23 -108 128 -108 158 0 9 11 30 25 48 37 48 55
100 55 156 0 44 2 50 21 50 21 0 22 -3 16 -64z m443 -44 c0 -5 -9 -53 -21
-108 -15 -73 -19 -116 -14 -161 l7 -63 61 0 61 0 -27 28 c-32 34 -33 55 -7
157 22 88 26 93 42 77 8 -8 7 -26 -6 -70 -21 -78 -21 -121 4 -147 11 -11 21
-32 22 -45 l3 -25 -95 0 -95 0 -3 95 c-2 81 12 192 33 258 5 13 35 17 35 4z"/>
<path d="M1884 1908 c1 -17 -7 -23 -36 -30 -22 -4 -49 -3 -63 2 -58 22 -92 13
-144 -39 l-50 -50 25 -15 c30 -20 31 -33 2 -42 -53 -16 -101 -60 -140 -126
-73 -123 -129 -148 -332 -148 -72 0 -174 5 -226 10 -161 17 -223 -4 -267 -93
-21 -42 -24 -59 -22 -145 7 -236 -4 -295 -67 -378 -27 -35 -29 -44 -32 -150
-5 -141 1 -154 68 -154 53 0 63 12 30 32 -17 11 -20 24 -20 91 l0 79 93 92
c51 50 108 113 125 139 29 42 45 55 127 93 52 24 101 44 109 44 30 0 26 -21
-5 -34 l-33 -14 127 -41 c152 -48 266 -71 356 -71 66 0 67 0 113 -47 45 -47
158 -253 158 -288 0 -9 7 -29 15 -45 15 -29 18 -30 88 -30 l72 0 -43 41 c-38
38 -46 55 -93 203 -54 169 -58 196 -36 300 13 63 32 82 45 46 7 -20 9 -20 21
-6 19 23 41 20 72 -10 l27 -26 7 48 c4 27 8 55 10 62 8 22 31 12 48 -20 15
-33 16 -31 17 77 1 113 6 132 45 152 15 9 25 8 40 -3 28 -21 44 -17 56 14 6
15 19 36 29 47 10 11 28 38 40 60 l22 39 -51 44 c-41 35 -54 54 -67 98 -8 30
-25 67 -37 82 -12 15 -30 44 -41 64 -21 41 -46 54 -127 62 -52 5 -56 5 -55
-16z m216 -234 c0 -11 -5 -14 -16 -10 -9 3 -21 6 -27 6 -16 0 14 20 31 20 6 0
12 -7 12 -16z m-280 -26 c0 -6 -7 -19 -16 -29 -12 -13 -13 -22 -5 -38 6 -11
11 -36 11 -55 0 -27 6 -40 24 -52 15 -9 22 -21 19 -30 -7 -20 -17 -18 -51 11
-25 21 -30 34 -36 91 -5 52 -3 71 9 90 16 25 45 33 45 12z"/>
<path d="M320 1165 c13 -16 80 -21 80 -6 0 10 -35 21 -69 21 -20 0 -21 -2 -11
-15z"/>
</g>
</svg>
